<?xml version="1.0" encoding="UTF-8"?>
<!DOCTYPE svg PUBLIC "-//W3C//DTD SVG 1.1//EN" "http://www.w3.org/Graphics/SVG/1.1/DTD/svg11.dtd">
<!-- Creator: CorelDRAW X7 -->
<svg xmlns="http://www.w3.org/2000/svg" xml:space="preserve" width="480px" height="420px" version="1.1" style="shape-rendering:geometricPrecision; text-rendering:geometricPrecision; image-rendering:optimizeQuality; fill-rule:evenodd; clip-rule:evenodd"
viewBox="0 0 480 420"
 xmlns:xlink="http://www.w3.org/1999/xlink">
 <defs>
  <style type="text/css">
   <![CDATA[
    .str3 {stroke:#FEFEFE;stroke-width:8.85827;stroke-linecap:round;stroke-linejoin:round}
    .str0 {stroke:#FEFEFE;stroke-width:8.85827;stroke-linecap:round;stroke-linejoin:round}
    .str4 {stroke:#FEFEFE;stroke-width:5.90551;stroke-linecap:round;stroke-linejoin:round}
    .str1 {stroke:#FEFEFE;stroke-width:5.90551;stroke-linecap:round;stroke-linejoin:round}
    .str5 {stroke:#FEFEFE;stroke-width:2.95276;stroke-linecap:round;stroke-linejoin:round}
    .str2 {stroke:#FEFEFE;stroke-width:2.95276;stroke-linecap:round;stroke-linejoin:round}
    .fil1 {fill:none}
    .fil3 {fill:none;fill-rule:nonzero}
    .fil2 {fill:#FEFEFE;fill-rule:nonzero}
    .fil0 {fill:white;fill-rule:nonzero}
   ]]>
  </style>
   <clipPath id="id0" style="clip-rule:nonzero">
    <path d="M340 0l0 2c-2,33 -17,58 -38,74 -21,16 -49,23 -76,23l-1 0c-20,27 -56,44 -96,51 -43,8 -91,5 -129,-6l0 -25c36,12 83,16 125,8 37,-7 69,-22 84,-46 2,-3 6,-6 11,-5 1,0 3,0 6,0 23,0 45,-6 62,-19 16,-12 27,-31 28,-56l0 -1 24 0zm-95 0c2,8 2,15 1,22 -1,14 -6,25 -14,34 -8,8 -18,14 -30,18 -8,3 -16,4 -25,4 -17,19 -41,31 -69,36 -35,7 -75,6 -108,0l0 -24c31,6 70,8 103,1 25,-5 46,-15 59,-32 2,-3 6,-5 11,-5 7,1 15,0 22,-3 8,-2 15,-6 19,-11 5,-5 8,-12 9,-20 0,-6 0,-12 -3,-20l25 0zm-93 0c1,3 2,6 2,8 2,12 0,23 -6,34 -6,11 -16,20 -30,28 0,0 -1,0 -1,0 -25,13 -63,20 -117,14l0 -24c50,6 85,1 106,-11 0,0 1,0 1,0 10,-5 17,-12 21,-18 3,-6 4,-13 3,-18 -1,-5 -3,-9 -6,-13l27 0z"/>
   </clipPath>
 </defs>
 <g id="Layer_x0020_1">
  <metadata id="CorelCorpID_0Corel-Layer"/>
  <path class="fil0" d="M309 269c3,1 4,5 3,8 -2,3 -5,4 -8,2 -5,-2 -11,-5 -18,-6 -6,-1 -13,-1 -22,1 0,0 0,0 -1,0l0 0c0,0 0,0 0,0 -7,1 -19,7 -28,17 -9,11 -16,25 -13,45 1,1 1,2 1,3 2,11 9,22 18,30 9,8 21,12 35,13l0 0 18 0 0 0 84 0c15,-2 29,-9 39,-20 10,-10 17,-24 20,-38 3,-15 3,-31 -3,-45 -5,-14 -15,-27 -31,-37 -11,-7 -20,-9 -27,-10l0 0 -2 -1c-3,0 -5,-3 -4,-7 0,-3 3,-5 7,-4l1 0 0 0c7,1 16,3 27,9 9,-7 16,-15 21,-23 9,-14 12,-30 10,-44 -1,-15 -7,-29 -15,-40 -6,-8 -13,-15 -20,-20 -4,-2 -9,-5 -14,-6 -14,-6 -32,-7 -48,-3 -16,5 -32,15 -43,33 -2,3 -3,5 -4,8 5,-2 10,-2 15,-2 8,1 15,3 22,5 3,1 4,4 3,7 -1,4 -4,5 -7,4 -6,-2 -12,-4 -19,-4 -6,0 -14,1 -23,5l0 0 0 0c-16,6 -27,15 -34,26 -6,9 -9,19 -10,30 -1,10 1,20 4,29 5,11 12,21 21,28 9,-2 17,-2 25,0 7,1 14,4 20,7zm127 -57c-5,8 -12,16 -21,24 15,10 25,24 30,39 7,16 7,34 4,51 -4,17 -12,32 -24,44 -12,13 -28,21 -46,24 0,0 -1,0 -1,0l-84 0 0 0 -18 0c0,0 0,0 0,0 -17,-1 -31,-7 -42,-16 -12,-9 -20,-23 -23,-37 0,-1 0,-2 0,-4 -4,-23 4,-41 15,-53 8,-9 17,-15 24,-18 -7,-8 -13,-17 -17,-27 -5,-11 -7,-23 -6,-35 1,-12 5,-25 12,-35 8,-13 20,-23 38,-30 2,-7 5,-13 9,-19 13,-21 31,-33 50,-38 19,-6 39,-4 56,3 5,2 10,4 15,7 9,6 17,14 24,23 9,13 15,29 17,46 2,17 -1,34 -12,51z"/>
  <path class="fil0" d="M253 75c-2,0 -4,0 -6,0 -2,0 -4,0 -7,0 -37,0 -71,15 -96,39 -24,25 -39,59 -39,96 0,37 15,71 39,96 15,15 34,26 55,33 0,5 1,9 3,13 -25,-7 -48,-20 -66,-38 -27,-27 -43,-63 -43,-104 0,-41 16,-77 43,-104 27,-27 63,-43 104,-43 2,0 5,0 7,0 3,0 5,0 8,1l0 0c6,1 10,3 13,7 2,3 4,6 4,10 0,3 0,7 -1,10 -2,3 -4,6 -7,7 -14,11 -25,27 -33,46 -8,20 -13,42 -13,66 0,20 3,39 9,56 -3,3 -6,5 -9,9 -8,-20 -12,-42 -12,-65 0,-26 5,-50 14,-70 9,-22 22,-39 38,-51l1 -1c0,0 0,-1 1,-1 0,-2 0,-3 0,-5 0,-1 0,-3 -1,-4 -1,-1 -3,-2 -6,-3z"/>
  <g id="_273718504">
   <path class="fil1 str0" d="M416 59l-7 23m15 -8l-23 -6"/>
   <path class="fil1 str1" d="M90 105l-12 45m29 -16l-45 -12"/>
   <path class="fil1 str2" d="M282 13l-12 45m28 -16l-45 -12"/>
   <path class="fil1 str0" d="M59 58l-6 23m14 -9l-23 -6"/>
   <path class="fil1 str2" d="M91 332l-12 45m28 -17l-45 -12"/>
  </g>
  <g style="clip-path:url(#id0)">
   <polygon class="fil2" points="-300,-300 640,-300 640,455 -300,455 "/>
   <g id="Layer_x0020_1_0">
    <metadata id="CorelCorpID_1Corel-Layer"/>
    <path id="1" class="fil0" d="M309 269c3,1 4,5 3,8 -2,3 -5,4 -8,2 -5,-2 -11,-5 -18,-6 -6,-1 -13,-1 -22,1 0,0 0,0 -1,0l0 0c0,0 0,0 0,0 -7,1 -19,7 -28,17 -9,11 -16,25 -13,45 1,1 1,2 1,3 2,11 9,22 18,30 9,8 21,12 35,13l0 0 18 0 0 0 84 0c15,-2 29,-9 39,-20 10,-10 17,-24 20,-38 3,-15 3,-31 -3,-45 -5,-14 -15,-27 -31,-37 -11,-7 -20,-9 -27,-10l0 0 -2 -1c-3,0 -5,-3 -4,-7 0,-3 3,-5 7,-4l1 0 0 0c7,1 16,3 27,9 9,-7 16,-15 21,-23 9,-14 12,-30 10,-44 -1,-15 -7,-29 -15,-40 -6,-8 -13,-15 -20,-20 -4,-2 -9,-5 -14,-6 -14,-6 -32,-7 -48,-3 -16,5 -32,15 -43,33 -2,3 -3,5 -4,8 5,-2 10,-2 15,-2 8,1 15,3 22,5 3,1 4,4 3,7 -1,4 -4,5 -7,4 -6,-2 -12,-4 -19,-4 -6,0 -14,1 -23,5l0 0 0 0c-16,6 -27,15 -34,26 -6,9 -9,19 -10,30 -1,10 1,20 4,29 5,11 12,21 21,28 9,-2 17,-2 25,0 7,1 14,4 20,7zm127 -57c-5,8 -12,16 -21,24 15,10 25,24 30,39 7,16 7,34 4,51 -4,17 -12,32 -24,44 -12,13 -28,21 -46,24 0,0 -1,0 -1,0l-84 0 0 0 -18 0c0,0 0,0 0,0 -17,-1 -31,-7 -42,-16 -12,-9 -20,-23 -23,-37 0,-1 0,-2 0,-4 -4,-23 4,-41 15,-53 8,-9 17,-15 24,-18 -7,-8 -13,-17 -17,-27 -5,-11 -7,-23 -6,-35 1,-12 5,-25 12,-35 8,-13 20,-23 38,-30 2,-7 5,-13 9,-19 13,-21 31,-33 50,-38 19,-6 39,-4 56,3 5,2 10,4 15,7 9,6 17,14 24,23 9,13 15,29 17,46 2,17 -1,34 -12,51z"/>
    <path class="fil0" d="M253 75c-2,0 -4,0 -6,0 -2,0 -4,0 -7,0 -37,0 -71,15 -96,39 -24,25 -39,59 -39,96 0,37 15,71 39,96 15,15 34,26 55,33 0,5 1,9 3,13 -25,-7 -48,-20 -66,-38 -27,-27 -43,-63 -43,-104 0,-41 16,-77 43,-104 27,-27 63,-43 104,-43 2,0 5,0 7,0 3,0 5,0 8,1l0 0c6,1 10,3 13,7 2,3 4,6 4,10 0,3 0,7 -1,10 -2,3 -4,6 -7,7 -14,11 -25,27 -33,46 -8,20 -13,42 -13,66 0,20 3,39 9,56 -3,3 -6,5 -9,9 -8,-20 -12,-42 -12,-65 0,-26 5,-50 14,-70 9,-22 22,-39 38,-51l1 -1c0,0 0,-1 1,-1 0,-2 0,-3 0,-5 0,-1 0,-3 -1,-4 -1,-1 -3,-2 -6,-3z"/>
    <g id="_273718504">
     <path class="fil1 str3" d="M416 59l-7 23m15 -8l-23 -6"/>
     <path class="fil1 str4" d="M90 105l-12 45m29 -16l-45 -12"/>
     <path class="fil1 str5" d="M282 13l-12 45m28 -16l-45 -12"/>
     <path class="fil1 str3" d="M59 58l-6 23m14 -9l-23 -6"/>
     <path class="fil1 str5" d="M91 332l-12 45m28 -17l-45 -12"/>
    </g>
   </g>
  </g>
  <path class="fil3" d="M340 0l0 2c-2,33 -17,58 -38,74 -21,16 -49,23 -76,23l-1 0c-20,27 -56,44 -96,51 -43,8 -91,5 -129,-6l0 -25c36,12 83,16 125,8 37,-7 69,-22 84,-46 2,-3 6,-6 11,-5 1,0 3,0 6,0 23,0 45,-6 62,-19 16,-12 27,-31 28,-56l0 -1 24 0zm-95 0c2,8 2,15 1,22 -1,14 -6,25 -14,34 -8,8 -18,14 -30,18 -8,3 -16,4 -25,4 -17,19 -41,31 -69,36 -35,7 -75,6 -108,0l0 -24c31,6 70,8 103,1 25,-5 46,-15 59,-32 2,-3 6,-5 11,-5 7,1 15,0 22,-3 8,-2 15,-6 19,-11 5,-5 8,-12 9,-20 0,-6 0,-12 -3,-20l25 0zm-93 0c1,3 2,6 2,8 2,12 0,23 -6,34 -6,11 -16,20 -30,28 0,0 -1,0 -1,0 -25,13 -63,20 -117,14l0 -24c50,6 85,1 106,-11 0,0 1,0 1,0 10,-5 17,-12 21,-18 3,-6 4,-13 3,-18 -1,-5 -3,-9 -6,-13l27 0z"/>
 </g>
</svg>
