<?xml version="1.0" encoding="UTF-8"?>
<!DOCTYPE svg PUBLIC "-//W3C//DTD SVG 1.1//EN" "http://www.w3.org/Graphics/SVG/1.1/DTD/svg11.dtd">
<!-- Creator: CorelDRAW X7 -->
<svg xmlns="http://www.w3.org/2000/svg" xml:space="preserve" width="480px" height="420px" version="1.1" style="shape-rendering:geometricPrecision; text-rendering:geometricPrecision; image-rendering:optimizeQuality; fill-rule:evenodd; clip-rule:evenodd"
viewBox="0 0 480 420"
 xmlns:xlink="http://www.w3.org/1999/xlink">
 <defs>
  <style type="text/css">
   <![CDATA[
    .str0 {stroke:#FEFEFE;stroke-width:8.85827;stroke-linecap:round;stroke-linejoin:round}
    .str1 {stroke:#FEFEFE;stroke-width:5.90551;stroke-linecap:round;stroke-linejoin:round}
    .str2 {stroke:#FEFEFE;stroke-width:2.95276;stroke-linecap:round;stroke-linejoin:round}
    .fil1 {fill:none}
    .fil0 {fill:white;fill-rule:nonzero}
    .fil2 {fill:white;fill-opacity:0.000000}
    .fil3 {fill:white;fill-opacity:0.101961}
    .fil4 {fill:white;fill-opacity:0.200000}
    .fil5 {fill:white;fill-opacity:0.301961}
    .fil6 {fill:white;fill-opacity:0.400000}
    .fil7 {fill:white;fill-opacity:0.501961}
    .fil8 {fill:white;fill-opacity:0.600000}
    .fil9 {fill:white;fill-opacity:0.701961}
    .fil10 {fill:white;fill-opacity:0.800000}
    .fil11 {fill:white;fill-opacity:0.901961}
   ]]>
  </style>
 </defs>
 <g id="Layer_x0020_1">
  <metadata id="CorelCorpID_0Corel-Layer"/>
  <path class="fil0" d="M253 75c-2,0 -4,0 -6,0 -2,0 -4,0 -7,0 -37,0 -71,15 -96,39 -24,25 -39,59 -39,96 0,37 15,71 39,96 25,24 59,39 96,39 2,0 5,0 6,0 3,0 5,0 7,0 3,-1 5,-2 6,-3 1,-1 1,-2 1,-3 1,-2 0,-3 0,-5 -1,-1 -1,-2 -2,-2l-1 -1c-15,-12 -28,-29 -37,-51l0 0c-9,-20 -14,-44 -14,-70 0,-26 5,-50 14,-70 9,-22 22,-39 38,-51l1 -1c0,0 0,-1 1,-1 0,-2 0,-3 0,-5 0,-1 0,-3 -1,-4 -1,-1 -3,-2 -6,-3zm-6 -12c3,0 5,0 8,1l0 0c6,1 10,3 13,7 2,3 4,6 4,10 0,3 0,7 -1,10 -2,3 -4,6 -7,7 -14,11 -25,27 -33,46 -8,20 -13,42 -13,66 0,24 5,46 13,66l0 0c8,19 19,35 33,46 3,1 5,4 7,8 1,3 1,7 1,10 0,4 -2,7 -5,10 -3,3 -7,6 -13,6l0 0c-2,1 -5,1 -7,1 -3,0 -5,0 -7,0 -41,0 -77,-16 -104,-43 -27,-27 -43,-63 -43,-104 0,-41 16,-77 43,-104 27,-27 63,-43 104,-43 2,0 5,0 7,0z"/>
  <g id="_273742912">
   <path class="fil1 str0" d="M416 59l-7 23m15 -8l-23 -6"/>
   <path class="fil1 str1" d="M90 105l-12 45m29 -16l-45 -12"/>
   <path class="fil1 str2" d="M282 13l-12 45m28 -16l-45 -12"/>
   <path class="fil1 str0" d="M59 58l-6 23m14 -9l-23 -6"/>
   <path class="fil1 str2" d="M91 332l-12 45m28 -17l-45 -12"/>
   <path class="fil1 str2" d="M419 135l-12 45m29 -16l-45 -12"/>
  </g>
  <g id="_273739960">
   <polygon class="fil2" points="480,221 0,221 0,210 480,210 "/>
   <g>
    <path class="fil3" d="M480 242c-160,0 -320,0 -480,0 0,-4 0,-7 0,-11 160,0 320,0 480,0 0,4 0,7 0,11z"/>
    <path class="fil4" d="M480 263c-160,0 -320,0 -480,0 0,-4 0,-7 0,-11 160,0 320,0 480,0 0,4 0,7 0,11z"/>
    <path class="fil5" d="M480 284c-160,0 -320,0 -480,0 0,-4 0,-7 0,-11 160,0 320,0 480,0 0,4 0,7 0,11z"/>
    <path class="fil6" d="M480 305c-160,0 -320,0 -480,0 0,-4 0,-7 0,-11 160,0 320,0 480,0 0,4 0,7 0,11z"/>
    <path class="fil7" d="M480 326c-160,0 -320,0 -480,0 0,-4 0,-7 0,-11 160,0 320,0 480,0 0,4 0,7 0,11z"/>
    <path class="fil8" d="M480 347c-160,0 -320,0 -480,0 0,-4 0,-7 0,-11 160,0 320,0 480,0 0,4 0,7 0,11z"/>
    <path class="fil9" d="M480 368c-160,0 -320,0 -480,0 0,-4 0,-7 0,-11 160,0 320,0 480,0 0,4 0,7 0,11z"/>
    <path class="fil10" d="M480 389c-160,0 -320,0 -480,0 0,-4 0,-7 0,-11 160,0 320,0 480,0 0,4 0,7 0,11z"/>
   </g>
   <polygon class="fil11" points="480,410 0,410 0,399 480,399 "/>
  </g>
 </g>
</svg>
