<?xml version="1.0" encoding="UTF-8"?>
<!DOCTYPE svg PUBLIC "-//W3C//DTD SVG 1.1//EN" "http://www.w3.org/Graphics/SVG/1.1/DTD/svg11.dtd">
<!-- Creator: CorelDRAW X7 -->
<svg xmlns="http://www.w3.org/2000/svg" xml:space="preserve" width="480px" height="420px" version="1.1" style="shape-rendering:geometricPrecision; text-rendering:geometricPrecision; image-rendering:optimizeQuality; fill-rule:evenodd; clip-rule:evenodd"
viewBox="0 0 480 420"
 xmlns:xlink="http://www.w3.org/1999/xlink">
 <defs>
  <style type="text/css">
   <![CDATA[
    .str0 {stroke:#FEFEFE;stroke-width:8.85827;stroke-linecap:round;stroke-linejoin:round}
    .str1 {stroke:#FEFEFE;stroke-width:5.90551;stroke-linecap:round;stroke-linejoin:round}
    .str2 {stroke:#FEFEFE;stroke-width:2.95276;stroke-linecap:round;stroke-linejoin:round}
    .fil1 {fill:none}
    .fil0 {fill:white;fill-rule:nonzero}
    .fil2 {fill:white;fill-opacity:0.000000}
    .fil3 {fill:white;fill-opacity:0.101961}
    .fil4 {fill:white;fill-opacity:0.200000}
    .fil5 {fill:white;fill-opacity:0.301961}
    .fil6 {fill:white;fill-opacity:0.400000}
    .fil7 {fill:white;fill-opacity:0.501961}
    .fil8 {fill:white;fill-opacity:0.600000}
    .fil9 {fill:white;fill-opacity:0.701961}
    .fil10 {fill:white;fill-opacity:0.800000}
    .fil11 {fill:white;fill-opacity:0.901961}
   ]]>
  </style>
 </defs>
 <g id="Layer_x0020_1">
  <metadata id="CorelCorpID_0Corel-Layer"/>
  <g>
   <path class="fil0" d="M395 337c0,-13 -5,-24 -13,-33 -9,-8 -20,-13 -33,-13 -4,0 -8,0 -12,1 -2,1 -5,2 -7,3 0,1 0,1 0,2 1,3 1,5 1,8 0,3 -1,7 -1,11 -1,4 -1,7 -2,11 -1,3 -4,5 -7,4 -4,-1 -5,-4 -5,-7 1,-3 2,-6 2,-10 1,-3 1,-6 1,-9 0,-3 0,-5 0,-7 -1,-2 -1,-4 -1,-6l0 0c-3,-19 -13,-35 -27,-47 -14,-12 -31,-19 -51,-19 -8,0 -15,1 -22,3 -3,-3 -6,-6 -10,-9 10,-4 21,-6 32,-6 23,0 43,8 59,22 14,12 24,28 29,47 2,-1 4,-2 6,-2 5,-2 10,-2 15,-2 16,0 30,6 41,17 10,10 17,25 17,41 0,16 -7,30 -17,41 -11,10 -25,17 -41,17l-109 0 -89 0c-11,0 -20,-4 -27,-11 -6,-6 -10,-13 -11,-21l12 0c1,5 4,9 7,12 5,5 11,8 19,8l89 0 109 0c13,0 24,-5 33,-13 8,-9 13,-20 13,-33zm-77 -45l0 0 0 0z"/>
  </g>
  <path class="fil0" d="M271 307c0,-9 -3,-17 -9,-23 -6,-6 -14,-10 -23,-10 -3,0 -6,1 -9,1 -1,1 -2,1 -4,2 0,0 0,0 0,1 1,1 1,3 1,5 0,3 0,6 -1,8 0,3 -1,6 -1,9 -1,3 -4,5 -8,4 -3,-1 -5,-4 -4,-7 1,-2 1,-5 1,-7 1,-2 1,-5 1,-7 0,-2 0,-3 0,-5 0,-1 -1,-3 -1,-4 0,0 0,0 0,0 -2,-14 -9,-26 -19,-34 -10,-9 -23,-14 -37,-14 -15,0 -30,7 -40,17 -10,10 -16,24 -16,40 0,2 0,5 0,7 0,2 1,5 1,7 1,3 -1,6 -4,7 -1,0 -2,0 -3,0 -1,0 -1,0 -2,0 -1,0 -1,0 -2,0 -5,0 -10,2 -13,5 -3,3 -5,8 -5,13 0,5 2,9 5,12l0 0 0 0c3,4 8,6 13,6l66 0 81 0c9,0 17,-4 23,-10 6,-6 9,-14 9,-23zm-1 -32c8,8 13,20 13,32 0,12 -5,23 -13,31 -8,8 -19,13 -31,13l-81 0 -66 0c-8,0 -16,-3 -21,-8l0 0c-6,-6 -9,-13 -9,-21 0,-9 3,-16 9,-21 5,-5 12,-9 19,-9l0 0c0,-3 0,-6 0,-9 0,-19 7,-36 20,-48 12,-13 29,-20 48,-20 17,0 33,6 45,16 10,9 18,20 21,34 1,-1 2,-1 4,-1 3,-1 7,-2 11,-2 12,0 23,5 31,13z"/>
  <g>
   <path class="fil1 str0" d="M416 59l-7 23m15 -8l-23 -6"/>
   <path class="fil1 str1" d="M90 105l-12 45m29 -16l-45 -12"/>
   <path class="fil1 str2" d="M282 13l-12 45m28 -16l-45 -12"/>
   <path class="fil1 str0" d="M59 58l-6 23m14 -9l-23 -6"/>
   <path class="fil1 str2" d="M419 135l-12 45m29 -16l-45 -12"/>
  </g>
  <g>
   <polygon class="fil2" points="480,221 0,221 0,210 480,210 "/>
   <g id="_285104424">
    <path class="fil3" d="M480 242c-160,0 -320,0 -480,0 0,-4 0,-7 0,-11 160,0 320,0 480,0 0,4 0,7 0,11z"/>
    <path class="fil4" d="M480 263c-160,0 -320,0 -480,0 0,-4 0,-7 0,-11 160,0 320,0 480,0 0,4 0,7 0,11z"/>
    <path class="fil5" d="M480 284c-160,0 -320,0 -480,0 0,-4 0,-7 0,-11 160,0 320,0 480,0 0,4 0,7 0,11z"/>
    <path class="fil6" d="M480 305c-160,0 -320,0 -480,0 0,-4 0,-7 0,-11 160,0 320,0 480,0 0,4 0,7 0,11z"/>
    <path class="fil7" d="M480 326c-160,0 -320,0 -480,0 0,-4 0,-7 0,-11 160,0 320,0 480,0 0,4 0,7 0,11z"/>
    <path class="fil8" d="M480 347c-160,0 -320,0 -480,0 0,-4 0,-7 0,-11 160,0 320,0 480,0 0,4 0,7 0,11z"/>
    <path class="fil9" d="M480 368c-160,0 -320,0 -480,0 0,-4 0,-7 0,-11 160,0 320,0 480,0 0,4 0,7 0,11z"/>
    <path class="fil10" d="M480 389c-160,0 -320,0 -480,0 0,-4 0,-7 0,-11 160,0 320,0 480,0 0,4 0,7 0,11z"/>
   </g>
   <polygon class="fil11" points="480,410 0,410 0,399 480,399 "/>
  </g>
 </g>
</svg>
