<?xml version="1.0" encoding="UTF-8"?>
<!DOCTYPE svg PUBLIC "-//W3C//DTD SVG 1.1//EN" "http://www.w3.org/Graphics/SVG/1.1/DTD/svg11.dtd">
<!-- Creator: CorelDRAW X7 -->
<svg xmlns="http://www.w3.org/2000/svg" xml:space="preserve" width="480px" height="420px" version="1.1" style="shape-rendering:geometricPrecision; text-rendering:geometricPrecision; image-rendering:optimizeQuality; fill-rule:evenodd; clip-rule:evenodd"
viewBox="0 0 480 420"
 xmlns:xlink="http://www.w3.org/1999/xlink">
 <defs>
  <style type="text/css">
   <![CDATA[
    .str3 {stroke:#FEFEFE;stroke-width:8.85827;stroke-linecap:round;stroke-linejoin:round}
    .str0 {stroke:#FEFEFE;stroke-width:8.85827;stroke-linecap:round;stroke-linejoin:round}
    .str4 {stroke:#FEFEFE;stroke-width:5.90551;stroke-linecap:round;stroke-linejoin:round}
    .str1 {stroke:#FEFEFE;stroke-width:5.90551;stroke-linecap:round;stroke-linejoin:round}
    .str5 {stroke:#FEFEFE;stroke-width:2.95276;stroke-linecap:round;stroke-linejoin:round}
    .str2 {stroke:#FEFEFE;stroke-width:2.95276;stroke-linecap:round;stroke-linejoin:round}
    .fil0 {fill:none}
    .fil4 {fill:none;fill-rule:nonzero}
    .fil3 {fill:#FEFEFE;fill-rule:nonzero}
    .fil1 {fill:white;fill-rule:nonzero}
    .fil2 {fill:white;fill-rule:nonzero}
   ]]>
  </style>
   <clipPath id="id0" style="clip-rule:nonzero">
    <path d="M340 0l0 2c-2,33 -17,58 -38,74 -21,16 -49,23 -76,23l-1 0c-20,27 -56,44 -96,51 -43,8 -91,5 -129,-6l0 -25c36,12 83,16 125,8 37,-7 69,-22 84,-46 2,-3 6,-6 11,-5 1,0 3,0 6,0 23,0 45,-6 62,-19 16,-12 27,-31 28,-56l0 -1 24 0zm-95 0c2,8 2,15 1,22 -1,14 -6,25 -14,34 -8,8 -18,14 -30,18 -8,3 -16,4 -25,4 -17,19 -41,31 -69,36 -35,7 -75,6 -108,0l0 -24c31,6 70,8 103,1 25,-5 46,-15 59,-32 2,-3 6,-5 11,-5 7,1 15,0 22,-3 8,-2 15,-6 19,-11 5,-5 8,-12 9,-20 0,-6 0,-12 -3,-20l25 0zm-93 0c1,3 2,6 2,8 2,12 0,23 -6,34 -6,11 -16,20 -30,28 0,0 -1,0 -1,0 -25,13 -63,20 -117,14l0 -24c50,6 85,1 106,-11 0,0 1,0 1,0 10,-5 17,-12 21,-18 3,-6 4,-13 3,-18 -1,-5 -3,-9 -6,-13l27 0z"/>
   </clipPath>
 </defs>
 <g id="Layer_x0020_1">
  <metadata id="CorelCorpID_0Corel-Layer"/>
  <g id="_273724720">
   <path class="fil0 str0" d="M416 59l-7 23m15 -8l-23 -6"/>
   <path class="fil0 str1" d="M90 105l-12 45m29 -16l-45 -12"/>
   <path class="fil0 str2" d="M282 13l-12 45m28 -16l-45 -12"/>
   <path class="fil0 str0" d="M59 58l-6 23m14 -9l-23 -6"/>
   <path class="fil0 str2" d="M419 135l-12 45m29 -16l-45 -12"/>
  </g>
  <path class="fil1" d="M253 75c-2,0 -4,0 -6,0 -2,0 -4,0 -7,0 -37,0 -71,15 -96,39 -14,15 -26,33 -32,53 -6,3 -10,5 -15,9 6,-27 20,-51 39,-70 27,-27 63,-43 104,-43 2,0 5,0 7,0 3,0 5,0 8,1l0 0c6,1 10,3 13,7 2,3 4,6 4,10 0,3 0,7 -1,10 -2,3 -4,6 -7,7 -14,11 -25,27 -33,46 -4,10 -7,19 -9,30 -4,-2 -7,-4 -11,-6 2,-10 5,-19 9,-28 9,-22 22,-39 38,-51l1 -1c0,0 0,-1 1,-1 0,-2 0,-3 0,-5 0,-1 0,-3 -1,-4 -1,-1 -3,-2 -6,-3z"/>
  <path class="fil2" d="M340 324l0 0c-3,9 -8,17 -15,23 -11,11 -27,19 -45,19l-119 0 -99 0c-12,0 -22,-5 -30,-13 -7,-7 -12,-17 -12,-29 0,-11 5,-22 12,-29 8,-8 18,-12 30,-12 0,0 0,0 1,0 0,-2 -1,-3 -1,-4 0,-4 -1,-8 -1,-12 0,-28 12,-53 29,-70 18,-18 43,-29 71,-29 24,0 46,8 64,23 11,10 20,22 26,35l0 0c3,5 5,11 6,17 1,0 2,-1 3,-1l0 0c1,0 3,-1 4,-1 6,-2 11,-2 16,-2 18,0 34,7 45,18 12,12 19,28 19,45 0,4 -1,7 -1,10l0 0c-1,4 -2,8 -3,12zm-8 -22c0,-14 -6,-27 -15,-36 -10,-10 -23,-15 -37,-15 -4,0 -9,0 -13,1 -3,1 -5,2 -8,3 0,1 0,2 0,4 0,2 1,5 1,8 0,4 -1,8 -1,12 -1,4 -2,8 -3,12 0,3 -4,5 -7,4 -3,-1 -5,-4 -4,-7 1,-3 2,-7 2,-11 0,-3 1,-7 1,-10 0,-3 0,-5 -1,-7 0,-3 0,-5 0,-7l0 -1c-4,-20 -15,-39 -30,-52 -15,-13 -35,-21 -56,-21 -25,0 -46,10 -62,26 -16,16 -26,37 -26,62 0,3 1,7 1,10 0,4 1,8 2,11 1,3 -1,6 -4,7 -1,0 -2,0 -3,0 -1,0 -2,0 -4,0 -1,-1 -2,-1 -3,-1 -8,0 -16,4 -21,9 -6,5 -9,13 -9,21 0,8 3,16 9,21 5,5 13,9 21,9l99 0 119 0c14,0 27,-6 37,-15 9,-10 15,-23 15,-37z"/>
  <path class="fil1" d="M445 241c9,9 14,21 14,34 0,14 -5,26 -14,35 -9,9 -21,14 -34,14l-59 0c2,-4 3,-8 3,-12l56 0c10,0 19,-4 26,-11 6,-6 11,-15 11,-26 0,-10 -5,-19 -11,-25 0,-1 0,-1 0,-1 -7,-6 -16,-10 -26,-10 -3,0 -6,0 -9,1 -2,0 -4,1 -5,2 0,0 0,1 0,1 0,2 0,4 0,6 0,3 0,6 0,9 -1,3 -1,7 -2,10 -1,3 -4,5 -7,4 -4,-1 -5,-4 -5,-7 1,-3 1,-5 2,-8 0,-3 0,-5 0,-8 0,-2 0,-3 0,-5 0,-2 0,-3 0,-5 0,0 0,0 -1,0 -2,-15 -10,-28 -21,-38 -11,-9 -25,-15 -41,-15 -17,0 -33,7 -44,19 -6,5 -11,13 -14,20 -2,-4 -4,-9 -7,-13 4,-6 8,-11 12,-16 14,-13 33,-22 53,-22 19,0 36,7 49,18 11,10 20,23 24,38 1,-1 2,-1 4,-1 4,-1 8,-2 12,-2 13,0 25,5 34,14 0,0 0,0 0,0z"/>
  <g style="clip-path:url(#id0)">
   <polygon class="fil3" points="-300,-300 640,-300 640,455 -300,455 "/>
   <g id="Layer_x0020_1_0">
    <metadata id="CorelCorpID_1Corel-Layer"/>
    <g id="_273724720">
     <path id="1" class="fil0 str3" d="M416 59l-7 23m15 -8l-23 -6"/>
     <path class="fil0 str4" d="M90 105l-12 45m29 -16l-45 -12"/>
     <path class="fil0 str5" d="M282 13l-12 45m28 -16l-45 -12"/>
     <path class="fil0 str3" d="M59 58l-6 23m14 -9l-23 -6"/>
     <path class="fil0 str5" d="M419 135l-12 45m29 -16l-45 -12"/>
    </g>
    <path class="fil1" d="M253 75c-2,0 -4,0 -6,0 -2,0 -4,0 -7,0 -37,0 -71,15 -96,39 -14,15 -26,33 -32,53 -6,3 -10,5 -15,9 6,-27 20,-51 39,-70 27,-27 63,-43 104,-43 2,0 5,0 7,0 3,0 5,0 8,1l0 0c6,1 10,3 13,7 2,3 4,6 4,10 0,3 0,7 -1,10 -2,3 -4,6 -7,7 -14,11 -25,27 -33,46 -4,10 -7,19 -9,30 -4,-2 -7,-4 -11,-6 2,-10 5,-19 9,-28 9,-22 22,-39 38,-51l1 -1c0,0 0,-1 1,-1 0,-2 0,-3 0,-5 0,-1 0,-3 -1,-4 -1,-1 -3,-2 -6,-3z"/>
    <path class="fil1" d="M340 324l0 0c-3,9 -8,17 -15,23 -11,11 -27,19 -45,19l-119 0 -99 0c-12,0 -22,-5 -30,-13 -7,-7 -12,-17 -12,-29 0,-11 5,-22 12,-29 8,-8 18,-12 30,-12 0,0 0,0 1,0 0,-2 -1,-3 -1,-4 0,-4 -1,-8 -1,-12 0,-28 12,-53 29,-70 18,-18 43,-29 71,-29 24,0 46,8 64,23 11,10 20,22 26,35l0 0c3,5 5,11 6,17 1,0 2,-1 3,-1l0 0c1,0 3,-1 4,-1 6,-2 11,-2 16,-2 18,0 34,7 45,18 12,12 19,28 19,45 0,4 -1,7 -1,10l0 0c-1,4 -2,8 -3,12zm-8 -22c0,-14 -6,-27 -15,-36 -10,-10 -23,-15 -37,-15 -4,0 -9,0 -13,1 -3,1 -5,2 -8,3 0,1 0,2 0,4 0,2 1,5 1,8 0,4 -1,8 -1,12 -1,4 -2,8 -3,12 0,3 -4,5 -7,4 -3,-1 -5,-4 -4,-7 1,-3 2,-7 2,-11 0,-3 1,-7 1,-10 0,-3 0,-5 -1,-7 0,-3 0,-5 0,-7l0 -1c-4,-20 -15,-39 -30,-52 -15,-13 -35,-21 -56,-21 -25,0 -46,10 -62,26 -16,16 -26,37 -26,62 0,3 1,7 1,10 0,4 1,8 2,11 1,3 -1,6 -4,7 -1,0 -2,0 -3,0 -1,0 -2,0 -4,0 -1,-1 -2,-1 -3,-1 -8,0 -16,4 -21,9 -6,5 -9,13 -9,21 0,8 3,16 9,21 5,5 13,9 21,9l99 0 119 0c14,0 27,-6 37,-15 9,-10 15,-23 15,-37z"/>
    <path class="fil1" d="M445 241c9,9 14,21 14,34 0,14 -5,26 -14,35 -9,9 -21,14 -34,14l-59 0c2,-4 3,-8 3,-12l56 0c10,0 19,-4 26,-11 6,-6 11,-15 11,-26 0,-10 -5,-19 -11,-25 0,-1 0,-1 0,-1 -7,-6 -16,-10 -26,-10 -3,0 -6,0 -9,1 -2,0 -4,1 -5,2 0,0 0,1 0,1 0,2 0,4 0,6 0,3 0,6 0,9 -1,3 -1,7 -2,10 -1,3 -4,5 -7,4 -4,-1 -5,-4 -5,-7 1,-3 1,-5 2,-8 0,-3 0,-5 0,-8 0,-2 0,-3 0,-5 0,-2 0,-3 0,-5 0,0 0,0 -1,0 -2,-15 -10,-28 -21,-38 -11,-9 -25,-15 -41,-15 -17,0 -33,7 -44,19 -6,5 -11,13 -14,20 -2,-4 -4,-9 -7,-13 4,-6 8,-11 12,-16 14,-13 33,-22 53,-22 19,0 36,7 49,18 11,10 20,23 24,38 1,-1 2,-1 4,-1 4,-1 8,-2 12,-2 13,0 25,5 34,14 0,0 0,0 0,0z"/>
   </g>
  </g>
  <path class="fil4" d="M340 0l0 2c-2,33 -17,58 -38,74 -21,16 -49,23 -76,23l-1 0c-20,27 -56,44 -96,51 -43,8 -91,5 -129,-6l0 -25c36,12 83,16 125,8 37,-7 69,-22 84,-46 2,-3 6,-6 11,-5 1,0 3,0 6,0 23,0 45,-6 62,-19 16,-12 27,-31 28,-56l0 -1 24 0zm-95 0c2,8 2,15 1,22 -1,14 -6,25 -14,34 -8,8 -18,14 -30,18 -8,3 -16,4 -25,4 -17,19 -41,31 -69,36 -35,7 -75,6 -108,0l0 -24c31,6 70,8 103,1 25,-5 46,-15 59,-32 2,-3 6,-5 11,-5 7,1 15,0 22,-3 8,-2 15,-6 19,-11 5,-5 8,-12 9,-20 0,-6 0,-12 -3,-20l25 0zm-93 0c1,3 2,6 2,8 2,12 0,23 -6,34 -6,11 -16,20 -30,28 0,0 -1,0 -1,0 -25,13 -63,20 -117,14l0 -24c50,6 85,1 106,-11 0,0 1,0 1,0 10,-5 17,-12 21,-18 3,-6 4,-13 3,-18 -1,-5 -3,-9 -6,-13l27 0z"/>
 </g>
</svg>
