<?xml version="1.0" encoding="UTF-8"?>
<!DOCTYPE svg PUBLIC "-//W3C//DTD SVG 1.1//EN" "http://www.w3.org/Graphics/SVG/1.1/DTD/svg11.dtd">
<!-- Creator: CorelDRAW X7 -->
<svg xmlns="http://www.w3.org/2000/svg" xml:space="preserve" width="480px" height="420px" version="1.1" style="shape-rendering:geometricPrecision; text-rendering:geometricPrecision; image-rendering:optimizeQuality; fill-rule:evenodd; clip-rule:evenodd"
viewBox="0 0 480 420"
 xmlns:xlink="http://www.w3.org/1999/xlink">
 <defs>
  <style type="text/css">
   <![CDATA[
    .str3 {stroke:#FEFEFE;stroke-width:11.811;stroke-linecap:round}
    .str0 {stroke:#FEFEFE;stroke-width:8.85827;stroke-linecap:round;stroke-linejoin:round}
    .str1 {stroke:#FEFEFE;stroke-width:5.90551;stroke-linecap:round;stroke-linejoin:round}
    .str2 {stroke:#FEFEFE;stroke-width:2.95276;stroke-linecap:round;stroke-linejoin:round}
    .fil2 {fill:none}
    .fil0 {fill:white;fill-rule:nonzero}
    .fil1 {fill:white;fill-rule:nonzero}
   ]]>
  </style>
 </defs>
 <g id="Layer_x0020_1">
  <metadata id="CorelCorpID_0Corel-Layer"/>
  <polygon class="fil0" points="95,398 148,293 109,293 151,184 203,184 161,268 204,268 "/>
  <path class="fil0" d="M253 75c-2,0 -4,0 -6,0 -2,0 -4,0 -7,0 -37,0 -71,15 -96,39 -1,2 -2,3 -4,4 -6,2 -13,4 -19,6 4,-6 9,-12 15,-18 27,-27 63,-43 104,-43 2,0 5,0 7,0 3,0 5,0 8,1l0 0c6,1 10,3 13,7 2,3 4,6 4,10 0,3 0,7 -1,10 -2,3 -4,6 -7,7 -13,11 -24,26 -32,45 -4,-3 -7,-5 -10,-8 9,-19 21,-35 36,-46l1 -1c0,0 0,-1 1,-1 0,-2 0,-3 0,-5 0,-1 0,-3 -1,-4 -1,-1 -3,-2 -6,-3z"/>
  <path class="fil1" d="M339 285l0 0c-3,9 -8,17 -15,23 -11,12 -27,19 -44,19l-109 0 9 -12 100 0c14,0 27,-6 36,-15 9,-10 15,-22 15,-37 0,-14 -6,-27 -15,-36 -9,-10 -22,-15 -36,-15 -5,0 -9,0 -13,1 -3,1 -6,2 -9,3 0,2 1,3 1,4 0,3 0,5 0,8 0,4 0,8 -1,12 0,4 -1,8 -2,12 -1,3 -4,5 -7,4 -3,0 -5,-4 -5,-7 1,-3 2,-7 2,-10 1,-4 1,-8 1,-11 0,-3 0,-5 0,-7 0,-3 -1,-5 -1,-7l0 0c-3,-21 -14,-40 -30,-53 -15,-13 -34,-20 -56,-20 -24,0 -46,9 -62,25 -16,16 -25,38 -25,62 0,3 0,7 0,11 1,3 2,7 2,10 1,3 -1,7 -4,7 -1,1 -2,1 -3,0 -1,0 -2,0 -3,0 -1,0 -3,0 -4,0 -8,0 -15,3 -21,8 -5,6 -8,13 -8,21 0,8 3,16 8,21 6,6 13,9 21,9l62 0 -6 12 -56 0c-11,0 -22,-5 -29,-12 -8,-8 -12,-18 -12,-30 0,-11 4,-22 12,-29 7,-8 18,-12 29,-12 1,0 1,0 1,0 0,-1 0,-3 0,-4 -1,-4 -1,-8 -1,-12 0,-28 11,-52 29,-70 18,-18 43,-29 70,-29 24,0 47,9 64,23 11,10 20,22 26,36l1 -1c2,6 4,11 5,17 1,0 2,0 3,-1l0 0c2,0 3,-1 5,-1 5,-1 10,-2 16,-2 17,0 33,7 44,18 12,12 19,28 19,45 0,4 0,7 -1,10l0 0c0,4 -1,8 -3,12z"/>
  <line class="fil2" x1="117" y1="400" x2="123" y2= "345" />
  <g id="_285105792">
   <path class="fil2 str0" d="M416 59l-7 23m15 -8l-23 -6"/>
   <path class="fil2 str1" d="M90 105l-12 45m29 -16l-45 -12"/>
   <path class="fil2 str2" d="M282 13l-12 45m28 -16l-45 -12"/>
   <path class="fil2 str0" d="M59 58l-6 23m14 -9l-23 -6"/>
   <path class="fil2 str2" d="M419 135l-12 45m29 -16l-45 -12"/>
  </g>
  <g id="_285100416">
   <line class="fil2 str3" x1="159" y1="400" x2="166" y2= "345" />
   <line class="fil2 str3" x1="244" y1="400" x2="251" y2= "345" />
   <line class="fil2 str3" x1="202" y1="400" x2="208" y2= "345" />
  </g>
 </g>
</svg>
