<?xml version="1.0" encoding="UTF-8"?>
<!DOCTYPE svg PUBLIC "-//W3C//DTD SVG 1.1//EN" "http://www.w3.org/Graphics/SVG/1.1/DTD/svg11.dtd">
<!-- Creator: CorelDRAW X7 -->
<svg xmlns="http://www.w3.org/2000/svg" xml:space="preserve" width="480px" height="420px" version="1.1" style="shape-rendering:geometricPrecision; text-rendering:geometricPrecision; image-rendering:optimizeQuality; fill-rule:evenodd; clip-rule:evenodd"
viewBox="0 0 480 420"
 xmlns:xlink="http://www.w3.org/1999/xlink">
 <defs>
  <style type="text/css">
   <![CDATA[
    .str0 {stroke:#FEFEFE;stroke-width:11.811;stroke-linecap:round}
    .str1 {stroke:#FEFEFE;stroke-width:8.85827;stroke-linecap:round;stroke-linejoin:round}
    .str2 {stroke:#FEFEFE;stroke-width:5.90551;stroke-linecap:round;stroke-linejoin:round}
    .str3 {stroke:#FEFEFE;stroke-width:2.95276;stroke-linecap:round;stroke-linejoin:round}
    .fil1 {fill:none}
    .fil0 {fill:white;fill-rule:nonzero}
   ]]>
  </style>
 </defs>
 <g id="Layer_x0020_1">
  <metadata id="CorelCorpID_0Corel-Layer"/>
  <g>
   <path class="fil0" d="M449 201c0,-13 -6,-25 -14,-33 -8,-8 -20,-14 -33,-14 -4,0 -8,1 -11,2 -3,0 -5,1 -8,2 1,1 1,2 1,3 0,3 0,5 0,7 0,4 0,8 -1,12 0,3 -1,7 -2,11 -1,3 -4,5 -7,4 -3,-1 -5,-4 -4,-7 1,-3 1,-7 2,-10 0,-3 0,-6 0,-10 0,-2 0,-4 0,-6 0,-2 0,-4 -1,-6l0 0c-3,-19 -13,-36 -26,-48 -14,-11 -32,-18 -51,-18 -22,0 -42,9 -56,23 -14,14 -23,34 -23,55 0,4 0,7 1,10 0,3 1,7 1,10 1,3 -1,6 -4,7 -1,0 -2,0 -3,0 -1,0 -2,-1 -3,-1 -1,0 -2,0 -3,0 -7,0 -14,3 -19,8 -4,5 -7,11 -7,19 0,7 3,13 7,18 5,5 12,8 19,8l58 0c-2,4 -4,8 -5,12l-53 0c-11,0 -20,-5 -27,-11 -7,-7 -11,-17 -11,-27 0,-11 4,-21 11,-27 7,-7 16,-12 27,-12l0 0c0,-1 0,-1 0,-2 -1,-4 -1,-8 -1,-12 0,-25 10,-47 27,-64 16,-16 39,-26 64,-26 22,0 42,8 58,22 14,12 25,28 29,46 2,0 5,-1 7,-2 4,-1 9,-1 14,-1 16,0 31,6 41,17 11,10 17,25 17,41 0,16 -6,30 -17,41 -3,3 -7,6 -11,8 -5,-1 -11,-2 -17,-2 -2,0 -4,0 -6,0 -1,0 -1,-1 -1,-1 10,-2 20,-6 27,-14 8,-8 14,-20 14,-32zm-78 -45l0 0 0 0z"/>
  </g>
  <path class="fil0" d="M193 147c-10,-4 -21,-6 -32,-6 -25,0 -46,9 -62,25 -16,16 -26,38 -26,62 0,3 1,7 1,11 0,3 1,7 2,10 1,3 -1,7 -4,7 -1,1 -2,1 -3,0 -1,0 -2,0 -4,0 -1,0 -2,0 -3,0 -8,0 -16,3 -21,8 -6,6 -9,13 -9,21 0,9 3,16 9,21 5,6 13,9 21,9l99 0 65 0c-1,1 -1,3 -1,4 0,3 1,5 1,8l-65 0 -99 0c-12,0 -22,-5 -30,-12 -7,-8 -12,-18 -12,-30 0,-11 5,-22 12,-29 8,-8 18,-12 30,-12 0,0 0,0 1,0 0,-1 -1,-3 -1,-4 0,-4 -1,-8 -1,-12 0,-28 12,-52 29,-70 18,-18 43,-29 71,-29 12,0 24,2 36,7 -2,3 -3,7 -4,11z"/>
  <path class="fil0" d="M447 273c8,8 13,19 13,31 0,12 -5,24 -13,32 -8,8 -19,13 -32,13l-80 0 -66 0c-9,0 -16,-4 -21,-9l0 0c-6,-5 -9,-13 -9,-21 0,-8 3,-16 9,-21 5,-5 11,-8 19,-9l0 0c0,-3 0,-6 0,-9 0,-19 7,-36 20,-48 12,-13 29,-20 48,-20 17,0 32,6 44,16 11,9 18,21 22,34 1,0 2,-1 3,-1 4,-1 8,-1 11,-1 13,0 24,5 32,13zm1 31c0,-9 -4,-17 -10,-23 -5,-6 -14,-10 -23,-10 -3,0 -5,1 -8,1 -1,1 -3,1 -4,2 0,0 0,0 0,1 0,2 0,3 0,5 0,3 0,6 0,9 -1,3 -1,5 -2,8 -1,3 -4,5 -7,4 -3,0 -5,-4 -4,-7 0,-2 1,-4 1,-7 0,-2 1,-4 1,-7 0,-1 0,-3 -1,-4 0,-2 0,-3 0,-5 0,0 0,0 0,0 -2,-14 -9,-25 -19,-34 -10,-8 -23,-13 -37,-13 -16,0 -30,6 -40,16 -10,10 -17,25 -17,40 0,3 0,5 1,7 0,3 0,5 1,7 1,3 -1,7 -4,7 -1,1 -2,1 -3,0 -1,0 -2,0 -2,0 -1,0 -2,0 -2,0 -5,0 -10,2 -13,5 -3,3 -5,8 -5,13 0,5 2,9 5,13l0 0 0 0c3,3 8,5 13,5l66 0 80 0c9,0 18,-4 23,-10 6,-6 10,-14 10,-23z"/>
  <g>
   <line class="fil1 str0" x1="66" y1="345" x2="57" y2= "393" />
   <line class="fil1 str0" x1="43" y1="353" x2="80" y2= "385" />
   <line class="fil1 str0" x1="38" y1="377" x2="84" y2= "361" />
  </g>
  <g>
   <line class="fil1 str0" x1="217" y1="345" x2="208" y2= "393" />
   <line class="fil1 str0" x1="194" y1="353" x2="231" y2= "385" />
   <line class="fil1 str0" x1="189" y1="377" x2="235" y2= "361" />
  </g>
  <g>
   <line class="fil1 str0" x1="142" y1="366" x2="132" y2= "414" />
   <line class="fil1 str0" x1="118" y1="374" x2="155" y2= "406" />
   <line class="fil1 str0" x1="114" y1="398" x2="160" y2= "382" />
  </g>
  <g>
   <line class="fil1 str0" x1="293" y1="366" x2="284" y2= "414" />
   <line class="fil1 str0" x1="270" y1="374" x2="307" y2= "406" />
   <line class="fil1 str0" x1="265" y1="398" x2="311" y2= "382" />
  </g>
  <g>
   <path class="fil1 str1" d="M416 59l-7 23m15 -8l-23 -6"/>
   <path class="fil1 str2" d="M90 105l-12 45m29 -16l-45 -12"/>
   <path class="fil1 str3" d="M282 13l-12 45m28 -16l-45 -12"/>
   <path class="fil1 str1" d="M59 58l-6 23m14 -9l-23 -6"/>
  </g>
 </g>
</svg>
