<?xml version="1.0" encoding="UTF-8"?>
<!DOCTYPE svg PUBLIC "-//W3C//DTD SVG 1.1//EN" "http://www.w3.org/Graphics/SVG/1.1/DTD/svg11.dtd">
<!-- Creator: CorelDRAW X7 -->
<svg xmlns="http://www.w3.org/2000/svg" xml:space="preserve" width="480px" height="420px" version="1.1" style="shape-rendering:geometricPrecision; text-rendering:geometricPrecision; image-rendering:optimizeQuality; fill-rule:evenodd; clip-rule:evenodd"
viewBox="0 0 480 420"
 xmlns:xlink="http://www.w3.org/1999/xlink">
 <defs>
  <style type="text/css">
   <![CDATA[
    .str3 {stroke:#FEFEFE;stroke-width:11.811;stroke-linecap:round}
    .str0 {stroke:#FEFEFE;stroke-width:8.85827;stroke-linecap:round;stroke-linejoin:round}
    .str1 {stroke:#FEFEFE;stroke-width:5.90551;stroke-linecap:round;stroke-linejoin:round}
    .str2 {stroke:#FEFEFE;stroke-width:2.95276;stroke-linecap:round;stroke-linejoin:round}
    .fil1 {fill:none}
    .fil0 {fill:white;fill-rule:nonzero}
   ]]>
  </style>
 </defs>
 <g id="Layer_x0020_1">
  <metadata id="CorelCorpID_0Corel-Layer"/>
  <path class="fil0" d="M253 75c-2,0 -4,0 -6,0 -2,0 -4,0 -7,0 -37,0 -71,15 -96,39 -24,25 -39,59 -39,96 0,37 15,71 39,96 24,23 56,38 92,39 4,5 9,9 15,12 -1,0 -3,0 -4,0 -3,0 -5,0 -7,0 -41,0 -77,-16 -104,-43 -27,-27 -43,-63 -43,-104 0,-41 16,-77 43,-104 27,-27 63,-43 104,-43 2,0 5,0 7,0 3,0 5,0 8,1l0 0c6,1 10,3 13,7 2,3 4,6 4,10 0,3 0,7 -1,10 -2,3 -4,6 -7,7 -14,11 -25,27 -33,46 -8,20 -13,42 -13,66 0,24 5,46 13,66l0 0c2,5 4,9 7,14 -3,3 -6,7 -8,11 -4,-7 -7,-14 -10,-21l0 0c-9,-20 -14,-44 -14,-70 0,-26 5,-50 14,-70 9,-22 22,-39 38,-51l1 -1c0,0 0,-1 1,-1 0,-2 0,-3 0,-5 0,-1 0,-3 -1,-4 -1,-1 -3,-2 -6,-3z"/>
  <path class="fil0" d="M447 273c8,8 13,19 13,31 0,12 -5,24 -13,32 -8,8 -19,13 -32,13l-80 0 -66 0c-9,0 -16,-4 -21,-9l0 0c-6,-5 -9,-13 -9,-21 0,-8 3,-16 9,-21 5,-5 11,-8 19,-9l0 0c0,-3 0,-6 0,-9 0,-19 7,-36 20,-48 12,-13 29,-20 48,-20 17,0 32,6 44,16 11,9 18,21 22,34 1,0 2,-1 3,-1 4,-1 8,-1 11,-1 13,0 24,5 32,13zm1 31c0,-9 -4,-17 -10,-23 -5,-6 -14,-10 -23,-10 -3,0 -5,1 -8,1 -1,1 -3,1 -4,2 0,0 0,0 0,1 0,2 0,3 0,5 0,3 0,6 0,9 -1,3 -1,5 -2,8 -1,3 -4,5 -7,4 -3,0 -5,-4 -4,-7 0,-2 1,-4 1,-7 0,-2 1,-4 1,-7 0,-1 0,-3 -1,-4 0,-2 0,-3 0,-5 0,0 0,0 0,0 -2,-14 -9,-25 -19,-34 -10,-8 -23,-13 -37,-13 -16,0 -30,6 -40,16 -10,10 -17,25 -17,40 0,3 0,5 1,7 0,3 0,5 1,7 1,3 -1,7 -4,7 -1,1 -2,1 -3,0 -1,0 -2,0 -2,0 -1,0 -2,0 -2,0 -5,0 -10,2 -13,5 -3,3 -5,8 -5,13 0,5 2,9 5,13l0 0 0 0c3,3 8,5 13,5l66 0 80 0c9,0 18,-4 23,-10 6,-6 10,-14 10,-23z"/>
  <g id="_277326160">
   <path class="fil1 str0" d="M416 59l-7 23m15 -8l-23 -6"/>
   <path class="fil1 str1" d="M90 105l-12 45m29 -16l-45 -12"/>
   <path class="fil1 str2" d="M282 13l-12 45m28 -16l-45 -12"/>
   <path class="fil1 str0" d="M59 58l-6 23m14 -9l-23 -6"/>
   <path class="fil1 str2" d="M91 332l-12 45m28 -17l-45 -12"/>
   <path class="fil1 str2" d="M419 135l-12 45m29 -16l-45 -12"/>
  </g>
  <line class="fil1 str3" x1="325" y1="400" x2="329" y2= "367" />
  <line class="fil1 str3" x1="368" y1="400" x2="371" y2= "367" />
 </g>
</svg>
